<svg width="32" height="32" viewBox="0 0 32 32" fill="none" xmlns="http://www.w3.org/2000/svg">
  <path d="M8 24C8 24 8 20 12 20C16 20 16 24 16 24V28C16 28 16 32 12 32C8 32 8 28 8 24Z" fill="currentColor"/>
  <path d="M16 16C16 16 16 12 20 12C24 12 24 16 24 16V20C24 20 24 24 20 24C16 24 16 20 16 16Z" fill="currentColor"/>
  <path d="M24 8C24 8 24 4 28 4C32 4 32 8 32 8V12C32 12 32 16 28 16C24 16 24 12 24 8Z" fill="currentColor"/>
  <circle cx="12" cy="12" r="4" fill="currentColor"/>
  <circle cx="20" cy="20" r="3" fill="currentColor"/>
  <circle cx="6" cy="6" r="2" fill="currentColor"/>
  <path d="M14 8C14 8 14 6 16 6C18 6 18 8 18 8C18 8 18 10 16 10C14 10 14 8 14 8Z" fill="currentColor"/>
  <path d="M22 14C22 14 22 12 24 12C26 12 26 14 26 14C26 14 26 16 24 16C22 16 22 14 22 14Z" fill="currentColor"/>
</svg>

